{"title":"American.Hustle.2013.DVDSCR.XViD.AC3-FiNGERBLaST","uid":9413367,"size":2056761342,"categoryP":"video","categoryS":"movies","magnet":"?xt=urn:btih:ee806fef4a52867c971f734c13f9308476ac628d&amp;dn=American.Hustle.2013.DVDSCR.XViD.AC3-FiNGERBLaST&amp;tr=udp%3A%2F%2Ftracker.openbittorrent.com%3A80&amp;tr=udp%3A%2F%2Fopen.demonii.com%3A1337&amp;tr=udp%3A%2F%2Ftracker.coppersurfer.tk%3A6969&amp;tr=udp%3A%2F%2Fexodus.desync.com%3A6969","seeders":1,"leechers":0,"uploader":"Acesn8s","files":-1,"time":1388364230,"description":"]American Hustle 2013 DVDScr XViD AC3-FiNGERBLaST\n\nRELEASE DATE........: 29th december 2013\nDVD DATE............:N/A\nTHEATRE DATE........: 01 January 2014 (UK)\nFOLDER SIZE...........: 1.90 GB\nSOURCE..............: SCR VOBS\nAUDIO...............: SCR VOBS\n\nGeneral\nComplete name                            : American Hustle 2013 DVDScr XViD AC3-FiNGERBLaST.avi\nFormat                                   : AVI\nFormat/Info                              : Audio Video Interleave\nFile size                                : 1.89 GiB\nDuration                                 : 2h 12mn\nOverall bit rate                         : 2 041 Kbps\nWriting library                          : VirtualDub build 30091/release\n\nVideo\nID                                       : 0\nFormat                                   : MPEG-4 Visual\nFormat profile                           : Advanced Simple@L5\nFormat settings, BVOP                    : 2\nFormat settings, QPel                    : No\nFormat settings, GMC                     : No warppoints\nFormat settings, Matrix                  : Default (H.263)\nMuxing mode                              : Packed bitstream\nCodec ID                                 : XVID\nCodec ID/Hint                            : XviD\nDuration                                 : 2h 12mn\nBit rate                                 : 1 837 Kbps\nWidth                                    : 704 pixels\nHeight                                   : 288 pixels\nDisplay aspect ratio                     : 2.40:1\nFrame rate                               : 29.970 fps\nColor space                              : YUV\nChroma subsampling                       : 4:2:0\nBit depth                                : 8 bits\nScan type                                : Progressive\nCompression mode                         : Lossy\nBits/(Pixel*Frame)                       : 0.302\nStream size                              : 1.70 GiB (90%)\nWriting library                          : XviD 64\n\nAudio\nID                                       : 1\nFormat                                   : AC-3\nFormat/Info                              : Audio Coding 3\nMode extension                           : CM (complete main)\nFormat settings, Endianness              : Big\nCodec ID                                 : 2000\nDuration                                 : 2h 12mn\nBit rate mode                            : Constant\nBit rate                                 : 192 Kbps\nChannel(s)                               : 2 channels\nChannel positions                        : Front: L R\nSampling rate                            : 48.0 KHz\nBit depth                                : 16 bits\nCompression mode                         : Lossy\nStream size                              : 182 MiB (9%)\nAlignment                                : Aligned on interleaves\nInterleave, duration                     : 33 ms (1.00 video frame)\nInterleave, preload duration             : 512 ms\n\nIMDb:\n &lt;a href=&quot;\nhttp://www.imdb.com/title/tt1800241/&quot; rel=&quot;nofollow&quot; target=&quot;_NEW&quot;&gt;\nhttp://www.imdb.com/title/tt1800241/&lt;/a&gt;\n\nScreens:\n &lt;a href=&quot;\nhttp://s28.postimg.org/8nv12pwkd/Q7nz_Vh_U.jpg&quot; rel=&quot;nofollow&quot; target=&quot;_NEW&quot;&gt;\nhttp://s28.postimg.org/8nv12pwkd/Q7nz_Vh_U.jpg&lt;/a&gt;\n &lt;a href=&quot;\nhttp://s28.postimg.org/gpj9kmfbx/Vc_An_Rv9&quot; rel=&quot;nofollow&quot; target=&quot;_NEW&quot;&gt;\nhttp://s28.postimg.org/gpj9kmfbx/Vc_An_Rv9&lt;/a&gt;\n &lt;a href=&quot;\nhttp://s28.postimg.org/a1mny0vtp/VNul_Ak_E.jpg&quot; rel=&quot;nofollow&quot; target=&quot;_NEW&quot;&gt;\nhttp://s28.postimg.org/a1mny0vtp/VNul_Ak_E.jpg&lt;/a&gt;\n &lt;a href=&quot;\nhttp://s28.postimg.org/i5us2ri8t/Xtr8_PB1.jpg&quot; rel=&quot;nofollow&quot; target=&quot;_NEW&quot;&gt;\nhttp://s28.postimg.org/i5us2ri8t/Xtr8_PB1.jpg&lt;/a&gt; ","torrent":{"xt":"urn:btih:ee806fef4a52867c971f734c13f9308476ac628d","amp;dn":"American.Hustle.2013.DVDSCR.XViD.AC3-FiNGERBLaST","amp;tr":["udp%3A%2F%2Ftracker.openbittorrent.com%3A80","udp%3A%2F%2Fopen.demonii.com%3A1337","udp%3A%2F%2Ftracker.coppersurfer.tk%3A6969","udp%3A%2F%2Fexodus.desync.com%3A6969"],"infoHash":"ee806fef4a52867c971f734c13f9308476ac628d","infoHashBuffer":{"type":"Buffer","data":[238,128,111,239,74,82,134,124,151,31,115,76,19,249,48,132,118,172,98,141]},"announce":[],"urlList":[]}}